<?xml version="1.0" encoding="UTF-8"?>
<svg version="1.1" xmlns="http://www.w3.org/2000/svg" width="330" height="407">
<path d="M0 0 C108.9 0 217.8 0 330 0 C330 134.31 330 268.62 330 407 C221.1 407 112.2 407 0 407 C0 272.69 0 138.38 0 0 Z " fill="#EEEEEE" transform="translate(0,0)"/>
<path d="M0 0 C7.43451006 1.35938286 14.66948198 3.18643739 21.9375 5.25 C23.03360596 5.5586499 24.12971191 5.8672998 25.2590332 6.18530273 C32.53676289 8.2520019 39.75418097 10.46523687 46.95117188 12.79541016 C53.06633889 14.75576844 59.2349067 16.46420777 65.4375 18.125 C73.05796423 20.16560993 80.55572338 22.37877584 88 25 C89.74899078 25.58635231 91.49892375 26.1699054 93.25 26.75 C94.4875 27.1625 95.725 27.575 97 28 C96.49371187 33.91584813 95.54073048 39.43006506 93.875 45.125 C93.65835693 45.88578857 93.44171387 46.64657715 93.21850586 47.43041992 C91.1217579 54.72839176 88.89068008 61.98655122 86.66210938 69.24511719 C84.1354807 77.49091511 81.75402982 85.77325532 79.40234375 94.0703125 C77.91300616 99.32234857 76.39047515 104.56428586 74.82592773 109.79443359 C73.73481706 113.44901821 72.69598353 117.11003942 71.71875 120.796875 C71.50420166 121.58352539 71.28965332 122.37017578 71.06860352 123.18066406 C70.6566785 124.69450842 70.2580836 126.21206127 69.87475586 127.73339844 C69.30859375 129.78125 69.30859375 129.78125 68 133 C64.12836205 135.00956975 60.11481409 133.15452213 56.20898438 131.97387695 C55.427883 131.74636246 54.64678162 131.51884796 53.8420105 131.28443909 C51.25633644 130.52863203 48.67512878 129.75861895 46.09375 128.98828125 C44.28999226 128.45753897 42.48599252 127.92761851 40.6817627 127.39848328 C36.89378787 126.28540943 33.10779006 125.16592968 29.32324219 124.04125977 C24.50215533 122.60856208 19.67811269 121.18617758 14.85274506 119.76797199 C10.2237795 118.40718434 5.59613935 117.04191776 0.96875 115.67578125 C-0.33616142 115.29087241 -0.33616142 115.29087241 -1.66743469 114.89818764 C-6.42941322 113.49152404 -11.1871505 112.07216063 -15.93740845 110.62637711 C-17.89250826 110.03264358 -19.8503575 109.44798577 -21.80834961 108.86386108 C-22.90219971 108.52359894 -23.9960498 108.18333679 -25.12304688 107.83276367 C-26.05403198 107.54753342 -26.98501709 107.26230316 -27.94421387 106.96842957 C-28.62262329 106.64884781 -29.30103271 106.32926605 -30 106 C-31.15582698 102.53251907 -30.80276701 101.5475207 -29.77734375 98.125 C-29.48899658 97.14909912 -29.20064941 96.17319824 -28.90356445 95.16772461 C-28.58476318 94.12237549 -28.26596191 93.07702637 -27.9375 92 C-27.61676514 90.92435791 -27.29603027 89.84871582 -26.96557617 88.74047852 C-24.74473315 81.33236899 -22.4235918 73.95745497 -20.06030273 66.59375 C-18.19033036 60.72618668 -16.59783144 54.80980327 -15.0546875 48.84765625 C-13.64469883 43.70380869 -12.0005786 38.64614657 -10.36035156 33.57202148 C-7.99893097 26.18178749 -5.96537346 18.71426828 -4.00439453 11.20874023 C-3.77091309 10.32645752 -3.53743164 9.4441748 -3.296875 8.53515625 C-3.09416992 7.755354 -2.89146484 6.97555176 -2.68261719 6.17211914 C-1.99030178 3.96913983 -1.08829578 2.03289257 0 0 Z M6 8 C3.98330734 12.52723993 2.31664271 16.9516585 0.94921875 21.7265625 C0.68020752 22.65884926 0.68020752 22.65884926 0.40576172 23.60997009 C-0.17130629 25.61377021 -0.74198294 27.61932595 -1.3125 29.625 C-1.71274177 31.01956272 -2.11337997 32.41401172 -2.5144043 33.80834961 C-3.50176698 37.24521045 -4.48402565 40.68350283 -5.46435547 44.12237549 C-6.23409836 46.82059798 -7.00769888 49.51771094 -7.78125 52.21484375 C-8.76421325 55.64275331 -9.7399654 59.0725837 -10.7109375 62.50390625 C-11.53860282 65.41810714 -12.39689628 68.31975753 -13.2890625 71.21484375 C-13.66804688 72.46394531 -14.04703125 73.71304688 -14.4375 75 C-14.76621094 76.051875 -15.09492187 77.10375 -15.43359375 78.1875 C-16.04063241 81.20176093 -15.68128945 83.04246439 -15 86 C-5.78655036 88.70857259 3.42825387 91.41247372 12.64478111 94.11055565 C16.92514977 95.36376348 21.20504939 96.61852584 25.48388672 97.87695312 C29.61953675 99.09320423 33.75640565 100.30522506 37.89412308 101.51442337 C39.46605424 101.97458629 41.03755378 102.43622652 42.60859299 102.89942551 C50.67545654 105.27679094 58.69218499 107.60207551 67 109 C68.01656089 106.00526655 69.01318983 103.00468209 70 100 C70.29777344 99.11441406 70.59554687 98.22882813 70.90234375 97.31640625 C71.32193359 96.01509766 71.32193359 96.01509766 71.75 94.6875 C72.01296875 93.88699219 72.2759375 93.08648437 72.546875 92.26171875 C73.04000776 89.8003061 72.79741588 88.35453201 72 86 C67.46575805 95.60083365 67.46575805 95.60083365 66 106 C53.83017645 102.66559128 41.70386902 99.19343289 29.59375 95.6484375 C28.66304687 95.37612305 27.73234375 95.10380859 26.7734375 94.82324219 C24.90032725 94.26724503 23.03055735 93.69988673 21.1640625 93.12207031 C20.27460938 92.84717773 19.38515625 92.57228516 18.46875 92.2890625 C17.67919922 92.0410791 16.88964844 91.7930957 16.07617188 91.53759766 C13.87340446 90.8746651 13.87340446 90.8746651 11 91 C11 90.34 11 89.68 11 89 C11.6798999 88.98541748 12.3597998 88.97083496 13.06030273 88.95581055 C16.18656282 88.8806358 19.31183482 88.78420768 22.4375 88.6875 C23.50677734 88.66494141 24.57605469 88.64238281 25.67773438 88.61914062 C32.36749371 88.39410285 37.76190372 87.44669812 44 85 C43.17351038 80.65153757 40.84551191 78.34347649 38 75 C37.67 74.01 37.34 73.02 37 72 C38.18078125 72.03480469 39.3615625 72.06960937 40.578125 72.10546875 C42.13540242 72.13361232 43.69269525 72.16091187 45.25 72.1875 C46.02730469 72.21263672 46.80460937 72.23777344 47.60546875 72.26367188 C52.23681154 72.32304806 54.36679448 72.04489653 58 69 C60.55078125 68.7421875 60.55078125 68.7421875 63.3125 68.875 C67.71117378 69.0047196 71.67397612 68.76907091 76 68 C75.67 70.64 75.34 73.28 75 76 C74.34 76 73.68 76 73 76 C73.33 76.99 73.66 77.98 74 79 C74.66 79 75.32 79 76 79 C79.62418093 67.8348717 83.17457452 56.65172627 86.4375 45.375 C86.69611816 44.49368408 86.95473633 43.61236816 87.22119141 42.7043457 C87.45628418 41.881521 87.69137695 41.05869629 87.93359375 40.2109375 C88.2438147 39.13271729 88.2438147 39.13271729 88.56030273 38.03271484 C89.14094713 35.69502435 89.14094713 35.69502435 89 32 C72.98535355 26.80422958 56.88300941 21.93739258 40.72485352 17.20874023 C37.41298396 16.23935686 34.10295586 15.26383083 30.79330921 14.28688908 C27.59896361 13.34511994 24.40290924 12.40921209 21.20703125 11.47265625 C20.0228511 11.12276138 18.83867096 10.77286652 17.61860657 10.41236877 C15.98365486 9.93573036 15.98365486 9.93573036 14.31567383 9.44946289 C13.3583284 9.16857315 12.40098297 8.88768341 11.41462708 8.59828186 C8.9292827 7.87974923 8.9292827 7.87974923 6 8 Z " fill="#ACACAC" transform="translate(141,69)"/>
<path d="M0 0 C-0.1858667 0.6077124 -0.3717334 1.2154248 -0.56323242 1.84155273 C-4.24825802 13.89822969 -7.91863199 25.95765684 -11.43261719 38.06542969 C-12.00852583 40.02907001 -12.60042568 41.98734623 -13.1953125 43.9453125 C-13.56398438 45.18023437 -13.93265625 46.41515625 -14.3125 47.6875 C-14.80169922 49.30205078 -14.80169922 49.30205078 -15.30078125 50.94921875 C-16.03279285 54.1430794 -16.34209384 56.73870535 -16 60 C-13.9531135 62.55239767 -12.07455517 63.54731311 -8.984375 64.5078125 C-7.7473584 64.89803589 -7.7473584 64.89803589 -6.48535156 65.29614258 C-5.58268555 65.56966553 -4.68001953 65.84318848 -3.75 66.125 C-2.33799316 66.56525513 -2.33799316 66.56525513 -0.89746094 67.0144043 C5.14118171 68.87842726 11.20643401 70.64524949 17.28125 72.38671875 C17.98280212 72.5882959 18.68435425 72.78987305 19.40716553 72.99755859 C22.90688814 74.00204991 26.40870706 74.99782478 29.91503906 75.97900391 C31.20902858 76.34652408 32.50297591 76.71419285 33.796875 77.08203125 C34.94510742 77.40405518 36.09333984 77.7260791 37.27636719 78.05786133 C40 79 40 79 42 81 C28.18606605 85.1716858 14.35160238 89.26955625 0.48901367 93.27685547 C-1.04404815 93.72226293 -2.57552792 94.1732126 -4.10424805 94.63330078 C-8.73808265 96.01437973 -12.19242008 96.47287671 -17 96 C-21.90688206 92.64965306 -22.89150228 87.0954195 -24.5 81.6875 C-24.80478271 80.69709717 -25.10956543 79.70669434 -25.42358398 78.6862793 C-27.43517939 72.08548062 -29.25582471 65.45264801 -30.97265625 58.76953125 C-32.19005793 54.30263916 -33.58329424 49.90689646 -35 45.5 C-36.88377009 39.60810757 -38.72833395 33.71311051 -40.375 27.75 C-40.85066406 26.04070312 -40.85066406 26.04070312 -41.3359375 24.296875 C-42.07236099 20.64074897 -42.45358925 17.71429691 -42 14 C-38.37941602 9.48121266 -34.61594939 7.79349858 -29.1796875 6.2890625 C-28.43921173 6.07180511 -27.69873596 5.85454773 -26.93582153 5.63070679 C-25.37985824 5.17786114 -23.82158705 4.73287822 -22.26123047 4.29541016 C-19.87002323 3.62360178 -17.48779301 2.92524334 -15.10546875 2.22265625 C-13.58899595 1.78488161 -12.07208258 1.34862962 -10.5546875 0.9140625 C-9.84214813 0.70584869 -9.12960876 0.49763489 -8.39547729 0.28311157 C-3.34794858 -1.11598286 -3.34794858 -1.11598286 0 0 Z " fill="#9F9F9F" transform="translate(122,116)"/>
<path d="M0 0 C1.87699245 0.55067357 3.75404839 1.10113076 5.63116455 1.65138245 C9.54874937 2.80090984 13.4653641 3.95367259 17.38134766 5.10864258 C22.39158201 6.58596578 27.40443738 8.05416619 32.41808701 9.51985073 C36.28834599 10.6525486 40.15702991 11.79055093 44.02527618 12.93010139 C45.87307813 13.47365668 47.72139655 14.01545953 49.57024384 14.55544853 C52.15361629 15.31072619 54.7347416 16.07325481 57.31542969 16.83764648 C58.07296036 17.05748703 58.83049103 17.27732758 59.61097717 17.50382996 C64.74594977 19.03626569 69.77174482 20.57252607 73.640625 24.44140625 C74.05568593 29.66238382 73.1340985 34.16466506 71.64038086 39.12304688 C71.42729279 39.8576564 71.21420471 40.59226593 70.99465942 41.34913635 C70.29055285 43.76803098 69.57315328 46.18275878 68.85546875 48.59765625 C68.35578614 50.30352149 67.85690444 52.00962152 67.35877991 53.71594238 C66.04314998 58.21406641 64.71606404 62.70873319 63.38671875 67.20281982 C62.06096701 71.69294322 60.74696012 76.18649949 59.43164062 80.6796875 C57.18483783 88.34942476 54.92001893 96.01365813 52.64287376 103.67443848 C51.23083904 108.43047877 49.84343395 113.19270452 48.47314453 117.9609375 C47.86381075 120.04823664 47.25429259 122.13548197 46.64453125 124.22265625 C46.39001694 125.1307605 46.13550262 126.03886475 45.87327576 126.9744873 C43.49893761 134.99955284 43.49893761 134.99955284 39.640625 137.44140625 C34.19260377 138.09395246 29.57560576 136.81885509 24.4296875 135.23828125 C23.64043381 135.00442215 22.85118011 134.77056305 22.03800964 134.52961731 C19.44448673 133.75904695 16.85514368 132.97531714 14.265625 132.19140625 C12.44909606 131.648706 10.63227781 131.10697323 8.81518555 130.56616211 C5.98363507 129.72303262 3.15239833 128.87893941 0.32225037 128.03111267 C-6.3392543 126.03600597 -13.01131924 124.08034919 -19.69140625 122.1484375 C-21.53011657 121.61558024 -23.36882107 121.08270289 -25.20751953 120.54980469 C-27.84420081 119.78586231 -30.48112422 119.02283751 -33.11907959 118.26330566 C-41.26328836 115.91590037 -49.39253324 113.53525826 -57.41015625 110.78125 C-58.51657471 110.40218506 -59.62299316 110.02312012 -60.76293945 109.63256836 C-63.359375 108.44140625 -63.359375 108.44140625 -65.359375 105.44140625 C-65.56967137 98.84466256 -63.71151546 92.53677788 -61.734375 86.31640625 C-59.45962194 79.07704483 -57.27651155 71.81561159 -55.1640625 64.52734375 C-54.54837436 62.41096001 -53.93265019 60.29458675 -53.31689453 58.17822266 C-52.66432608 55.93263519 -52.0118209 53.68702933 -51.359375 51.44140625 C-48.96970486 43.21773126 -46.57242615 34.99637357 -44.16015625 26.77929688 C-43.44941071 24.35245753 -42.74181422 21.92469407 -42.03710938 19.49609375 C-41.00133592 15.92864001 -39.9549261 12.36446026 -38.90625 8.80078125 C-38.59371277 7.71553162 -38.28117554 6.63028198 -37.95916748 5.512146 C-37.66165588 4.50879211 -37.36414429 3.50543823 -37.05761719 2.47167969 C-36.67292267 1.15463043 -36.67292267 1.15463043 -36.28045654 -0.18902588 C-35.28598203 -2.747404 -34.19921354 -4.52475162 -32.359375 -6.55859375 C-23.17950901 -9.61854908 -9.01978831 -2.65921574 0 0 Z M-29.359375 -1.55859375 C-32.24546059 6.01342164 -34.62351298 13.62096631 -36.734375 21.44140625 C-38.82386126 29.05378845 -40.98698772 36.61965909 -43.421875 44.12890625 C-45.87094812 51.69428783 -47.9850846 59.32068115 -50.02832031 67.00463867 C-52.13234323 74.82302789 -54.54541616 82.52387235 -57.08764648 90.21020508 C-58.52980893 94.61257399 -59.77460827 98.82402737 -60.359375 103.44140625 C-53.06680678 107.01987422 -45.55953952 109.30541742 -37.76171875 111.5234375 C-36.44185602 111.9039414 -35.12216249 112.28503262 -33.80262756 112.66667175 C-30.33652389 113.6675157 -26.86827725 114.66071596 -23.3994751 115.65216064 C-19.27360265 116.83294895 -15.15037546 118.02293367 -11.02674294 119.21151543 C-7.66542804 120.1799986 -4.3035055 121.14624269 -0.94003296 122.10720825 C5.33483899 123.90154866 11.6003964 125.72020913 17.84716797 127.61083984 C18.95652206 127.94403732 20.06587616 128.2772348 21.20884705 128.62052917 C23.26882747 129.2412681 25.32643855 129.86994712 27.38111877 130.50801086 C28.28587448 130.77953476 29.19063019 131.05105865 30.12280273 131.33081055 C30.90405014 131.57083298 31.68529755 131.81085541 32.49021912 132.05815125 C34.9462259 132.49587182 36.34771775 132.42787768 38.640625 131.44140625 C39.81087117 128.7589385 40.66132322 126.30237938 41.453125 123.50390625 C41.70175293 122.67431396 41.95038086 121.84472168 42.20654297 120.98999023 C44.67378742 112.6353848 46.91090561 104.2095446 49.10473633 95.77954102 C50.74441996 89.52506266 52.60567868 83.40427057 54.68994141 77.28393555 C56.09574903 73.0805924 57.31661389 68.83255698 58.515625 64.56640625 C58.76393066 63.68726563 59.01223633 62.808125 59.26806641 61.90234375 C59.79107991 60.04507196 60.31237749 58.18731619 60.83203125 56.32910156 C61.38372556 54.35885993 61.93854826 52.38949228 62.49609375 50.42089844 C63.3428098 47.42961537 64.18040117 44.4359161 65.015625 41.44140625 C65.27843262 40.51602051 65.54124023 39.59063477 65.81201172 38.63720703 C66.05193848 37.76821777 66.29186523 36.89922852 66.5390625 36.00390625 C66.75224121 35.24207031 66.96541992 34.48023438 67.18505859 33.6953125 C67.68402181 31.22670136 67.7187102 28.95342363 67.640625 26.44140625 C61.65164113 24.41052135 55.6389116 22.49609927 49.578125 20.69140625 C48.29663574 20.30843384 48.29663574 20.30843384 46.98925781 19.91772461 C37.25098241 17.01500316 27.49370051 14.17733706 17.73583984 11.34130859 C13.58039809 10.13315602 9.425703 8.92245182 5.27124023 7.7109375 C3.24618054 7.12051666 1.22095592 6.53066114 -0.80444336 5.94140625 C-5.38747984 4.60682968 -9.96735387 3.26355024 -14.5390625 1.890625 C-15.32740479 1.6548877 -16.11574707 1.41915039 -16.92797852 1.17626953 C-18.37743916 0.74195176 -19.82592338 0.30435576 -21.27319336 -0.13720703 C-24.08875411 -0.97933097 -26.40034372 -1.55859375 -29.359375 -1.55859375 Z " fill="#FBFBFB" transform="translate(170.359375,70.55859375)"/>
<path d="M0 0 C-0.66 5.94 -1.32 11.88 -2 18 C-0.68 18.33 0.64 18.66 2 19 C0.68 19.33 -0.64 19.66 -2 20 C-2 20.99 -2 21.98 -2 23 C-1.34 23 -0.68 23 0 23 C0.495 21.515 0.495 21.515 1 20 C3.40868416 18.68109855 5.74369295 17.53489433 8.25 16.4375 C8.91902344 16.13392578 9.58804688 15.83035156 10.27734375 15.51757812 C13.11590692 14.23771516 15.93670626 13.02334605 18.859375 11.9453125 C21.25563148 11.08859435 21.25563148 11.08859435 23 8.4375 C25 6 25 6 27.75 5.1875 C28.4925 5.125625 29.235 5.06375 30 5 C31.96774074 13.85483333 31.18835626 23.08732801 30 32 C27.01632274 32.99455909 24.7995808 33.19559632 21.67578125 33.31640625 C20.64775391 33.35830078 19.61972656 33.40019531 18.56054688 33.44335938 C17.48869141 33.48267578 16.41683594 33.52199219 15.3125 33.5625 C13.68731445 33.62727539 13.68731445 33.62727539 12.02929688 33.69335938 C9.35299209 33.79946838 6.67659474 33.90152361 4 34 C4.45822468 37.46941546 4.89131683 40.67395049 6 44 C-6.87 44 -19.74 44 -33 44 C-32.35052875 40.1031725 -31.68563075 36.54898022 -30.66015625 32.77734375 C-30.40169922 31.82666016 -30.14324219 30.87597656 -29.87695312 29.89648438 C-29.60818359 28.92001953 -29.33941406 27.94355469 -29.0625 26.9375 C-28.79759766 25.95716797 -28.53269531 24.97683594 -28.25976562 23.96679688 C-28.00001953 23.01740234 -27.74027344 22.06800781 -27.47265625 21.08984375 C-27.12086304 19.80388306 -27.12086304 19.80388306 -26.76196289 18.49194336 C-25.97757554 15.92666246 -25.03021454 13.47567285 -24 11 C-21.69 11.33 -19.38 11.66 -17 12 C-17.66 11.34 -18.32 10.68 -19 10 C-7.16438356 0 -7.16438356 0 0 0 Z " fill="#CCCCCC" transform="translate(162,104)"/>
<path d="M0 0 C1.26070312 0.02030273 1.26070312 0.02030273 2.546875 0.04101562 C4.61485938 0.07626536 6.68251271 0.1300698 8.75 0.1875 C8.42 2.8275 8.09 5.4675 7.75 8.1875 C7.09 8.1875 6.43 8.1875 5.75 8.1875 C6.28625 8.6825 6.8225 9.1775 7.375 9.6875 C8.99816144 12.63870263 8.74726437 13.28779582 7.9375 16.4375 C7.545625 17.675 7.15375 18.9125 6.75 20.1875 C6.09 19.8575 5.43 19.5275 4.75 19.1875 C3.93563413 21.60355225 3.12344603 24.02029998 2.3125 26.4375 C2.08240234 27.11941406 1.85230469 27.80132812 1.61523438 28.50390625 C0.54074459 31.7118033 -0.45955632 34.89874636 -1.25 38.1875 C-8.91469439 36.95128909 -16.25793698 35.17682442 -23.6875 32.9375 C-25.22664063 32.48105103 -25.22664063 32.48105103 -26.796875 32.01538086 C-29.94972984 31.0787089 -33.10002914 30.13381994 -36.25 29.1875 C-38.25122849 28.58959736 -40.25252814 27.99193285 -42.25390625 27.39453125 C-46.92142073 25.99926002 -51.58641911 24.59586016 -56.25 23.1875 C-56.25 22.5275 -56.25 21.8675 -56.25 21.1875 C-53.44682379 20.25310793 -51.55654775 20.02709622 -48.64453125 19.94140625 C-47.74283203 19.90853516 -46.84113281 19.87566406 -45.91210938 19.84179688 C-44.03200365 19.78123144 -42.1517916 19.72387051 -40.27148438 19.66992188 C-34.64278429 19.45819646 -29.66343556 18.75873218 -24.25 17.1875 C-24.87934202 13.83824302 -25.47350535 12.92038385 -27.8125 10.125 C-30.25 7.1875 -30.25 7.1875 -30.25 4.1875 C-29.06921875 4.15011719 -27.8884375 4.11273438 -26.671875 4.07421875 C-25.11455212 4.00854851 -23.55726186 3.94210153 -22 3.875 C-21.22269531 3.85244141 -20.44539063 3.82988281 -19.64453125 3.80664062 C-15.13550463 3.70838147 -15.13550463 3.70838147 -11.28125 1.65625 C-7.88890477 -0.79667655 -4.061453 -0.1237474 0 0 Z " fill="#CDCDCD" transform="translate(208.25,136.8125)"/>
<path d="M0 0 C3.25335031 2.65579617 4.6501187 4.09773273 5.40234375 8.1875 C5.61048415 13.11626473 4.83316114 16.85144261 2 21 C-0.95088259 23.40442285 -4.29457255 23.42089183 -8.03515625 23.31640625 C-11.24330151 22.79978644 -12.84118317 21.34930067 -15 19 C-17.25059535 15.03466534 -17.47404865 11.50346218 -17 7 C-12.98054769 -0.60824901 -8.12587742 -2.42908791 0 0 Z " fill="#7E7E7E" transform="translate(125,267)"/>
<path d="M0 0 C2.0625 -0.061875 4.125 -0.12375 6.25 -0.1875 C7.99023438 -0.23970703 7.99023438 -0.23970703 9.765625 -0.29296875 C13.24309487 0.02201946 14.59093953 0.52043045 17 3 C17.375 5.5625 17.375 5.5625 17 8 C16.34 8.66 15.68 9.32 15 10 C15.66 10.66 16.32 11.32 17 12 C17.63839286 17.74553571 17.63839286 17.74553571 17 20 C11.77181454 24.27064234 6.43562313 23.2121634 0 23 C0 15.41 0 7.82 0 0 Z " fill="#848484" transform="translate(194,307)"/>
<path d="M0 0 C2.31 0 4.62 0 7 0 C7.27714844 0.92683594 7.55429688 1.85367187 7.83984375 2.80859375 C8.20207031 4.00613281 8.56429687 5.20367187 8.9375 6.4375 C9.29714844 7.63246094 9.65679687 8.82742188 10.02734375 10.05859375 C10.70889142 12.85867545 10.70889142 12.85867545 12 14 C13.65 9.38 15.3 4.76 17 0 C19.31 0 21.62 0 24 0 C24 7.26 24 14.52 24 22 C22.68 22 21.36 22 20 22 C19.67 17.38 19.34 12.76 19 8 C17.35 12.62 15.7 17.24 14 22 C12.35 22 10.7 22 9 22 C7.68 18.04 6.36 14.08 5 10 C4.67 13.96 4.34 17.92 4 22 C2.68 22 1.36 22 0 22 C0 14.74 0 7.48 0 0 Z " fill="#7A7A7A" transform="translate(156,267)"/>
<path d="M0 0 C2.31 0 4.62 0 7 0 C9.64 4.62 12.28 9.24 15 14 C15.33 9.38 15.66 4.76 16 0 C17.65 0 19.3 0 21 0 C21 7.59 21 15.18 21 23 C18.69 23 16.38 23 14 23 C10.04 16.07 10.04 16.07 6 9 C5.67 13.62 5.34 18.24 5 23 C3.35 23 1.7 23 0 23 C0 15.41 0 7.82 0 0 Z " fill="#838383" transform="translate(83,267)"/>
<path d="M0 0 C2.91843445 2.626591 4.94517315 5.66976339 7 9 C7 9.66 7 10.32 7 11 C8.32 10.67 9.64 10.34 11 10 C10.49203169 13.75896547 9.93016289 15.57971127 7 18 C4.58984375 19.1328125 4.58984375 19.1328125 1.9375 20.125 C-1.58285058 21.44499582 -1.58285058 21.44499582 -5 23 C-7.6723621 23.13415472 -10.32250488 23.04318541 -13 23 C-13.25706972 17.08739655 -12.2982126 11.76081841 -11 6 C-7.30729952 7.23090016 -6.32749099 8.97426171 -4 12 C-3.67 12 -3.34 12 -3 12 C-4.32 10.68 -5.64 9.36 -7 8 C-6.25 5.5625 -6.25 5.5625 -5 3 C-2.9375 2.3125 -2.9375 2.3125 -1 2 C-0.67 1.34 -0.34 0.68 0 0 Z " fill="#B6B6B6" transform="translate(174,98)"/>
<path d="M0 0 C1.98 0 3.96 0 6 0 C9.33160505 7.54549287 12.05797655 14.97928527 14 23 C12.02 23 10.04 23 8 23 C7.67 21.35 7.34 19.7 7 18 C4.36 18 1.72 18 -1 18 C-1.33 19.65 -1.66 21.3 -2 23 C-3.98 23 -5.96 23 -8 23 C-6.05797655 14.97928527 -3.33160505 7.54549287 0 0 Z " fill="#7E7E7E" transform="translate(191,267)"/>
<path d="M0 0 C1.98 0 3.96 0 6 0 C14 17.23404255 14 17.23404255 14 23 C12.35 23 10.7 23 9 23 C8.34 21.35 7.68 19.7 7 18 C4.36 18 1.72 18 -1 18 C-1.33 19.65 -1.66 21.3 -2 23 C-3.98 23 -5.96 23 -8 23 C-6.05797655 14.97928527 -3.33160505 7.54549287 0 0 Z " fill="#7F7F7F" transform="translate(125,307)"/>
<path d="M0 0 C2.31 0 4.62 0 7 0 C7.98611151 2.53916175 8.96400876 5.0810023 9.9375 7.625 C10.35418945 8.69427734 10.35418945 8.69427734 10.77929688 9.78515625 C12.32728612 13.85095932 13.45835952 17.65316375 14 22 C12.35 22 10.7 22 9 22 C8.67 20.35 8.34 18.7 8 17 C5.03 17 2.06 17 -1 17 C-1.33 18.98 -1.66 20.96 -2 23 C-3.65 23 -5.3 23 -7 23 C-5.48526781 15.01323028 -2.83197448 7.59877122 0 0 Z " fill="#7C7C7C" transform="translate(177,307)"/>
<path d="M0 0 C2.31 0 4.62 0 7 0 C7.98611151 2.53916175 8.96400876 5.0810023 9.9375 7.625 C10.35418945 8.69427734 10.35418945 8.69427734 10.77929688 9.78515625 C12.32728612 13.85095932 13.45835952 17.65316375 14 22 C12.35 22 10.7 22 9 22 C8.67 20.35 8.34 18.7 8 17 C5.03 17 2.06 17 -1 17 C-1.33 18.98 -1.66 20.96 -2 23 C-3.65 23 -5.3 23 -7 23 C-5.48526781 15.01323028 -2.83197448 7.59877122 0 0 Z " fill="#7C7C7C" transform="translate(84,307)"/>
<path d="M0 0 C-0.33 1.32 -0.66 2.64 -1 4 C-2.04800781 4.05607422 -2.04800781 4.05607422 -3.1171875 4.11328125 C-4.02726563 4.17902344 -4.93734375 4.24476563 -5.875 4.3125 C-6.77992188 4.37050781 -7.68484375 4.42851562 -8.6171875 4.48828125 C-11.36221601 4.7882039 -11.36221601 4.7882039 -13 8 C-13.22584687 11.5382677 -13.04336284 14.60907078 -12 18 C-9.69 18.33 -7.38 18.66 -5 19 C-5 17.35 -5 15.7 -5 14 C-6.32 14 -7.64 14 -9 14 C-9 12.68 -9 11.36 -9 10 C-6.03 10 -3.06 10 0 10 C0 13.96 0 17.92 0 22 C-4.06001575 23.35333858 -7.75503981 23.53714786 -12 23 C-15.1225042 21.20622099 -16.54716303 19.79785562 -18.3125 16.6875 C-19.45990066 12.20220651 -19.66734175 8.545423 -17.8125 4.25 C-13.04574854 -1.66734664 -7.06569591 -2.26102269 0 0 Z " fill="#7F7F7F" transform="translate(225,267)"/>
<path d="M0 0 C4.62 0 9.24 0 14 0 C14 1.32 14 2.64 14 4 C11.03 4 8.06 4 5 4 C5 5.65 5 7.3 5 9 C7.64 9 10.28 9 13 9 C13 10.32 13 11.64 13 13 C10.36 13 7.72 13 5 13 C5 14.98 5 16.96 5 19 C7.97 19 10.94 19 14 19 C14 20.32 14 21.64 14 23 C9.38 23 4.76 23 0 23 C0 15.41 0 7.82 0 0 Z " fill="#828282" transform="translate(234,307)"/>
<path d="M0 0 C1.65 0 3.3 0 5 0 C5.67220351 1.93558599 6.33758077 3.87354372 7 5.8125 C7.556875 7.43091797 7.556875 7.43091797 8.125 9.08203125 C9 12 9 12 9 15 C9.66 15 10.32 15 11 15 C11.1546875 13.515 11.1546875 13.515 11.3125 12 C11.90808706 7.71702837 13.38595027 4.00003629 15 0 C16.65 0 18.3 0 20 0 C17.71143755 7.6805543 15.36446331 15.34249954 13 23 C11.02 23 9.04 23 7 23 C5.82847622 19.54329268 4.66360923 16.08437878 3.5 12.625 C3.16613281 11.64015625 2.83226563 10.6553125 2.48828125 9.640625 C2.17246094 8.69960938 1.85664062 7.75859375 1.53125 6.7890625 C1.23798828 5.91975098 0.94472656 5.05043945 0.64257812 4.15478516 C0 2 0 2 0 0 Z " fill="#7E7E7E" transform="translate(98,307)"/>
<path d="M0 0 C1.5 1.375 1.5 1.375 3 3 C3 3.66 3 4.32 3 5 C3.99 5 4.98 5 6 5 C6.33773437 5.89203125 6.67546875 6.7840625 7.0234375 7.703125 C7.46945313 8.87359375 7.91546875 10.0440625 8.375 11.25 C8.81585938 12.41015625 9.25671875 13.5703125 9.7109375 14.765625 C11.69324644 19.81509523 11.69324644 19.81509523 15 24 C9.72 24 4.44 24 -1 24 C-2 21 -2 21 -1.0625 18.1875 C0.81930196 12.35265098 0.15110181 6.05246694 0 0 Z " fill="#B8B8B8" transform="translate(194,111)"/>
<path d="M0 0 C0.98987007 3.08870529 0.9876603 4.94970029 0.0390625 8.0390625 C-0.18523437 8.78414062 -0.40953125 9.52921875 -0.640625 10.296875 C-0.88296875 11.06515625 -1.1253125 11.8334375 -1.375 12.625 C-1.60960937 13.40101563 -1.84421875 14.17703125 -2.0859375 14.9765625 C-3.81082589 20.62165179 -3.81082589 20.62165179 -5 23 C-12.00869357 21.72300276 -18.78226609 20.01261507 -25.6015625 17.9609375 C-26.564039 17.67521881 -27.5265155 17.38950012 -28.51815796 17.09512329 C-31.55502885 16.19257523 -34.59002501 15.28390047 -37.625 14.375 C-39.69909728 13.7574044 -41.77331498 13.1402131 -43.84765625 12.5234375 C-48.89983808 11.02029241 -53.95050042 9.51212956 -59 8 C-58.67 7.34 -58.34 6.68 -58 6 C-50.67807889 7.31822649 -43.62131886 9.17320478 -36.5 11.3125 C-34.39611384 11.93584337 -32.29194372 12.55822908 -30.1875 13.1796875 C-29.15109375 13.48616211 -28.1146875 13.79263672 -27.046875 14.10839844 C-22.54269945 15.42644724 -18.0238787 16.68900903 -13.5 17.9375 C-12.73494141 18.14866455 -11.96988281 18.3598291 -11.18164062 18.57739258 C-9.45479197 19.05292211 -7.72745931 19.5266936 -6 20 C-5.814375 18.46472656 -5.814375 18.46472656 -5.625 16.8984375 C-5.04480988 13.2795016 -4.18524203 10.08486094 -3 6.625 C-2.4740625 5.06652344 -2.4740625 5.06652344 -1.9375 3.4765625 C-1 1 -1 1 0 0 Z " fill="#F5F5F5" transform="translate(213,155)"/>
<path d="M0 0 C3.96 0 7.92 0 12 0 C12 0.99 12 1.98 12 3 C9.36 3 6.72 3 4 3 C4 4.98 4 6.96 4 9 C6.64 9 9.28 9 12 9 C12 9.99 12 10.98 12 12 C9.36 12 6.72 12 4 12 C4 14.31 4 16.62 4 19 C6.64 19 9.28 19 12 19 C12 19.99 12 20.98 12 22 C8.04 22 4.08 22 0 22 C0 14.74 0 7.48 0 0 Z " fill="#767676" transform="translate(231,267)"/>
<path d="M0 0 C1.65 0 3.3 0 5 0 C5 6.6 5 13.2 5 20 C7.97 20 10.94 20 14 20 C14 21.32 14 22.64 14 24 C9.38 24 4.76 24 0 24 C0 16.08 0 8.16 0 0 Z " fill="#858585" transform="translate(154,306)"/>
<path d="M0 0 C3.3 0 6.6 0 10 0 C10 0.99 10 1.98 10 3 C9.34 3 8.68 3 8 3 C8 8.28 8 13.56 8 19 C8.99 19.33 9.98 19.66 11 20 C11 20.99 11 21.98 11 23 C7.37 23 3.74 23 0 23 C0.33 21.68 0.66 20.36 1 19 C1.66 19 2.32 19 3 19 C2.88658509 16.51979503 2.75985314 14.04155031 2.625 11.5625 C2.5940625 10.85544922 2.563125 10.14839844 2.53125 9.41992188 C2.42719371 7.60760812 2.22080108 5.80182012 2 4 C1.34 3.67 0.68 3.34 0 3 C0 2.01 0 1.02 0 0 Z " fill="#7F7F7F" transform="translate(140,307)"/>
<path d="M0 0 C1.65 0 3.3 0 5 0 C5 6.27 5 12.54 5 19 C7.97 19 10.94 19 14 19 C14 20.32 14 21.64 14 23 C9.38 23 4.76 23 0 23 C0 15.41 0 7.82 0 0 Z " fill="#7D7D7D" transform="translate(216,307)"/>
<path d="M0 0 C2.97 0 5.94 0 9 0 C9 0.99 9 1.98 9 3 C8.34 3 7.68 3 7 3 C7 8.28 7 13.56 7 19 C7.99 19.33 8.98 19.66 10 20 C10 20.99 10 21.98 10 23 C6.37 23 2.74 23 -1 23 C-0.67 21.68 -0.34 20.36 0 19 C0.66 19 1.32 19 2 19 C2 13.72 2 8.44 2 3 C1.34 3 0.68 3 0 3 C0 2.01 0 1.02 0 0 Z " fill="#7D7D7D" transform="translate(142,267)"/>
<path d="M0 0 C2.9375 0.875 2.9375 0.875 4.9375 3.875 C5.28992656 7.68120684 5.18769316 10.25610114 3.75 13.8125 C1.9375 15.875 1.9375 15.875 -0.5625 16.375 C-3.49941923 15.78761615 -4.26015108 15.22320316 -6.0625 12.875 C-6.4609375 10.5 -6.4609375 10.5 -6.4375 7.875 C-6.44523437 7.00875 -6.45296875 6.1425 -6.4609375 5.25 C-6.0625 2.875 -6.0625 2.875 -4.73046875 1.0546875 C-3.0625 -0.125 -3.0625 -0.125 0 0 Z " fill="#E9E9E9" transform="translate(120.0625,270.125)"/>
<path d="M0 0 C0.99 0.33 1.98 0.66 3 1 C2.44417521 3.33508515 1.88031545 5.66782314 1.3125 8 C1.16361328 8.6290625 1.01472656 9.258125 0.86132812 9.90625 C-1.06186679 17.74986849 -3.57400407 25.23681303 -6 33 C5.55 33 17.1 33 29 33 C29 33.33 29 33.66 29 34 C23.90967159 34.02468084 18.81937785 34.04285082 13.72900391 34.05493164 C11.99657586 34.05996682 10.26415208 34.06679532 8.53173828 34.07543945 C6.04458567 34.08754065 3.55748913 34.09323638 1.0703125 34.09765625 C0.29317902 34.10281754 -0.48395447 34.10797882 -1.28463745 34.11329651 C-6.77225659 34.11387171 -6.77225659 34.11387171 -9 33 C-6.32466784 21.89512964 -3.30203829 10.9346186 0 0 Z " fill="#EEEEEE" transform="translate(135,115)"/>
<path d="M0 0 C2.31 0 4.62 0 7 0 C6.67 2.64 6.34 5.28 6 8 C5.34 8 4.68 8 4 8 C4.53625 8.495 5.0725 8.99 5.625 9.5 C7.24816144 12.45120263 6.99726437 13.10029582 6.1875 16.25 C5.795625 17.4875 5.40375 18.725 5 20 C4.01 19.67 3.02 19.34 2 19 C2.226875 17.845 2.45375 16.69 2.6875 15.5 C3.2357177 11.32910049 2.40499172 8.55004896 0.69140625 4.76171875 C0 3 0 3 0 0 Z " fill="#F2F2F2" transform="translate(210,137)"/>
<path d="M0 0 C0.33 3.96 0.66 7.92 1 12 C0.67 11.34 0.34 10.68 0 10 C-0.639375 9.71125 -1.27875 9.4225 -1.9375 9.125 C-4.42001234 7.77090236 -4.96871397 6.57821507 -6 4 C-3.33333333 0 -3.33333333 0 0 0 Z " fill="#D1D1D1" transform="translate(173,100)"/>
<path d="M0 0 C0.66 0 1.32 0 2 0 C2.66 2.97 3.32 5.94 4 9 C2.02 9 0.04 9 -2 9 C-1.34 6.03 -0.68 3.06 0 0 Z " fill="#DDDDDD" transform="translate(193,271)"/>
<path d="M0 0 C2.31 0 4.62 0 7 0 C6.67 2.64 6.34 5.28 6 8 C5.34 8 4.68 8 4 8 C2.68 5.36 1.36 2.72 0 0 Z " fill="#D0D0D0" transform="translate(210,137)"/>
<path d="M0 0 C2 1 2 1 2.6328125 2.84765625 C2.79523438 3.57855469 2.95765625 4.30945313 3.125 5.0625 C3.29257813 5.79597656 3.46015625 6.52945312 3.6328125 7.28515625 C3.75398437 7.85105469 3.87515625 8.41695313 4 9 C2.02 9 0.04 9 -2 9 C-1.34 6.03 -0.68 3.06 0 0 Z " fill="#DFDFDF" transform="translate(180,311)"/>
<path d="M0 0 C0.66 0 1.32 0 2 0 C2.66 2.97 3.32 5.94 4 9 C2.02 9 0.04 9 -2 9 C-1.34 6.03 -0.68 3.06 0 0 Z " fill="#DDDDDD" transform="translate(127,311)"/>
<path d="M0 0 C2 1 2 1 2.6328125 2.84765625 C2.79523438 3.57855469 2.95765625 4.30945313 3.125 5.0625 C3.29257813 5.79597656 3.46015625 6.52945312 3.6328125 7.28515625 C3.75398438 7.85105469 3.87515625 8.41695313 4 9 C2.02 9 0.04 9 -2 9 C-1.34 6.03 -0.68 3.06 0 0 Z " fill="#DFDFDF" transform="translate(87,311)"/>
<path d="M0 0 C1.98 0 3.96 0 6 0 C6 1.65 6 3.3 6 5 C4.02 5 2.04 5 0 5 C0 3.35 0 1.7 0 0 Z " fill="#EBEBEB" transform="translate(200,320)"/>
<path d="M0 0 C1.65 0 3.3 0 5 0 C5.33 1.32 5.66 2.64 6 4 C4.02 4 2.04 4 0 4 C0 2.68 0 1.36 0 0 Z " fill="#EAEAEA" transform="translate(200,311)"/>
<path d="M0 0 C0.33 0.99 0.66 1.98 1 3 C0.67 3.66 0.34 4.32 0 5 C-1.65 4.67 -3.3 4.34 -5 4 C-5 3.34 -5 2.68 -5 2 C-3.35 1.34 -1.7 0.68 0 0 Z " fill="#F9F9F9" transform="translate(208,173)"/>
</svg>
